<svg xmlns="http://www.w3.org/2000/svg" xmlns:xlink="http://www.w3.org/1999/xlink" version="1.1" x="0px" y="0px" viewBox="0 0 100 125" enable-background="new 0 0 100 100" xml:space="preserve"><path d="M84.863,44.249c-1.409-0.569-2.868-0.975-4.357-1.242V16.494c0-2.053-1.671-3.724-3.724-3.724H11.285  c-2.054,0-3.725,1.671-3.725,3.724v47.054c0,0.546,0.125,1.06,0.336,1.526H2.261c-0.324,0-0.634,0.145-0.843,0.393  c-0.209,0.249-0.297,0.577-0.24,0.897l1.313,7.448c0.092,0.525,0.55,0.908,1.083,0.908h52.975  c3.635,7.394,11.221,12.506,19.999,12.506c12.292,0,22.293-9.998,22.293-22.291C98.838,55.784,93.354,47.663,84.863,44.249z   M9.761,16.494c0-0.841,0.685-1.523,1.524-1.523h65.497c0.84,0,1.524,0.683,1.524,1.523V42.73c-0.582-0.046-1.17-0.083-1.761-0.083  c-11.231,0-20.741,8.393-22.119,19.523c-0.114,0.908-0.171,1.841-0.171,2.77c0,0.047,0.008,0.09,0.008,0.136H11.286  c-0.84,0-1.524-0.685-1.524-1.525L9.761,16.494L9.761,16.494z M4.496,72.523l-0.925-5.248h50.81c0.189,1.826,0.624,3.578,1.23,5.248  H4.496z M76.547,85.029c-11.078,0-20.091-9.012-20.091-20.09c0-0.838,0.052-1.679,0.153-2.498  c1.242-10.031,9.814-17.594,19.938-17.594c2.596,0,5.118,0.484,7.496,1.444c7.65,3.076,12.596,10.396,12.596,18.648  C96.639,76.016,87.625,85.029,76.547,85.029z M44.032,20.134c0.903,0,1.638-0.733,1.638-1.637c0-0.904-0.734-1.639-1.638-1.639  c-0.904,0-1.638,0.734-1.638,1.639C42.395,19.399,43.129,20.134,44.032,20.134z M50.908,68.798h-13.75c-0.607,0-1.1,0.492-1.1,1.101  s0.492,1.101,1.1,1.101h13.75c0.607,0,1.101-0.491,1.101-1.101C52.009,69.29,51.518,68.798,50.908,68.798z M79.455,55.434  c-0.566-0.218-1.203,0.065-1.42,0.631l-5.973,15.562c-0.219,0.567,0.065,1.203,0.633,1.421c0.13,0.051,0.263,0.073,0.394,0.073  c0.44,0,0.859-0.269,1.027-0.707l5.973-15.56C80.309,56.287,80.023,55.652,79.455,55.434z M70.199,55.557  c-0.44-0.416-1.137-0.396-1.555,0.045l-7.44,7.881c-0.399,0.425-0.399,1.086,0,1.512l7.44,7.885  c0.217,0.229,0.508,0.346,0.801,0.346c0.271,0,0.543-0.103,0.756-0.301c0.439-0.417,0.462-1.113,0.046-1.556l-6.729-7.13  l6.729-7.125C70.662,56.671,70.643,55.975,70.199,55.557z M90.947,63.486l-7.441-7.885c-0.418-0.441-1.113-0.461-1.556-0.045  c-0.441,0.418-0.462,1.113-0.046,1.555l6.729,7.131l-6.729,7.125c-0.416,0.441-0.396,1.138,0.046,1.556  c0.212,0.2,0.483,0.3,0.755,0.3c0.294,0,0.585-0.115,0.802-0.345l7.442-7.881C91.348,64.572,91.348,63.911,90.947,63.486z"/><text x="0" y="115" fill="#000000" font-size="5px" font-weight="bold" font-family="'Helvetica Neue', Helvetica, Arial-Unicode, Arial, Sans-serif">Created by Kidiladon</text><text x="0" y="120" fill="#000000" font-size="5px" font-weight="bold" font-family="'Helvetica Neue', Helvetica, Arial-Unicode, Arial, Sans-serif">from the Noun Project</text></svg>