<svg xmlns="http://www.w3.org/2000/svg" xmlns:xlink="http://www.w3.org/1999/xlink" version="1.1" x="0px" y="0px" viewBox="0 0 100 125" style="enable-background:new 0 0 100 100;" xml:space="preserve"><g><path d="M46.8,58.4c3-2.1,4.9-5.5,4.9-9.4c0-6.3-5.2-11.5-11.5-11.5S28.8,42.7,28.8,49c0,3.9,1.9,7.3,4.9,9.4   c-9.4,2.8-16.2,11.5-16.2,21.8c0,0.8,0.7,1.5,1.5,1.5s1.5-0.7,1.5-1.5c0-10.9,8.9-19.7,19.7-19.7c10.9,0,19.8,8.9,19.8,19.7   c0,0.8,0.7,1.5,1.5,1.5S63,81,63,80.2C63,69.9,56.1,61.2,46.8,58.4z M31.8,49c0-4.7,3.8-8.5,8.5-8.5c4.7,0,8.5,3.8,8.5,8.5   c0,4.7-3.8,8.5-8.5,8.5C35.6,57.5,31.8,53.7,31.8,49z"/><path d="M65.4,55.6c-0.2,0-0.4,0-0.6-0.1c-0.6-0.2-0.9-0.8-0.9-1.4l0-8.3h-9.3c-0.8,0-1.5-0.7-1.5-1.5s0.7-1.5,1.5-1.5h10.9   c0.4,0,0.8,0.2,1.1,0.4c0.3,0.3,0.4,0.7,0.4,1.1l0,6.1l7.1-7.2c0.3-0.3,0.7-0.4,1.1-0.4h4.4l-0.1-21.5L43,21.5l0.1,12.2   c0,0.8-0.7,1.5-1.5,1.5c0,0,0,0,0,0c-0.8,0-1.5-0.7-1.5-1.5L40,20c0-0.4,0.2-0.8,0.4-1.1c0.3-0.3,0.7-0.4,1.1-0.4l39.4-0.2   c0.4,0,0.8,0.2,1.1,0.4c0.3,0.3,0.4,0.7,0.4,1.1l0.1,24.5c0,0.4-0.2,0.8-0.4,1.1c-0.3,0.3-0.7,0.4-1.1,0.4h-5.3l-9.2,9.4   C66.2,55.4,65.8,55.6,65.4,55.6z"/></g><text x="0" y="115" fill="#000000" font-size="5px" font-weight="bold" font-family="'Helvetica Neue', Helvetica, Arial-Unicode, Arial, Sans-serif">Created by Shiva</text><text x="0" y="120" fill="#000000" font-size="5px" font-weight="bold" font-family="'Helvetica Neue', Helvetica, Arial-Unicode, Arial, Sans-serif">from the Noun Project</text></svg>