<svg xmlns="http://www.w3.org/2000/svg" xmlns:xlink="http://www.w3.org/1999/xlink" version="1.1" x="0px" y="0px" viewBox="0 0 100 125" enable-background="new 0 0 100 100" xml:space="preserve"><path d="M93.166,72.324h-7.5V51.842c0-0.828-0.672-1.5-1.5-1.5H51.5v-18.98h13.25c1.93,0,3.5-1.57,3.5-3.5V13.176  c0-1.93-1.57-3.5-3.5-3.5h-29.5c-1.93,0-3.5,1.57-3.5,3.5v14.686c0,1.93,1.57,3.5,3.5,3.5H48.5v18.98H15.834  c-0.828,0-1.5,0.672-1.5,1.5v20.482h-7.5c-0.828,0-1.5,0.672-1.5,1.5v15c0,0.828,0.672,1.5,1.5,1.5h18c0.828,0,1.5-0.672,1.5-1.5  v-15c0-0.828-0.672-1.5-1.5-1.5h-7.5V53.342h65.332v18.982h-7.5c-0.828,0-1.5,0.672-1.5,1.5v15c0,0.828,0.672,1.5,1.5,1.5h18  c0.828,0,1.5-0.672,1.5-1.5v-15C94.666,72.996,93.994,72.324,93.166,72.324z M34.75,27.861V13.176c0-0.275,0.225-0.5,0.5-0.5h29.5  c0.275,0,0.5,0.225,0.5,0.5v14.686c0,0.275-0.225,0.5-0.5,0.5h-29.5C34.975,28.361,34.75,28.137,34.75,27.861z M23.334,87.324h-15  v-12h15V87.324z M91.666,87.324h-15v-12h15V87.324z"/><text x="0" y="115" fill="#000000" font-size="5px" font-weight="bold" font-family="'Helvetica Neue', Helvetica, Arial-Unicode, Arial, Sans-serif">Created by Pundimon</text><text x="0" y="120" fill="#000000" font-size="5px" font-weight="bold" font-family="'Helvetica Neue', Helvetica, Arial-Unicode, Arial, Sans-serif">from the Noun Project</text></svg>