<svg xmlns="http://www.w3.org/2000/svg" xmlns:xlink="http://www.w3.org/1999/xlink" version="1.1" x="0px" y="0px" viewBox="0 0 100 125" enable-background="new 0 0 100 100" xml:space="preserve"><path d="M35.0888672,50.2954102V17.5458984H19.8554688v32.7495117H35.0888672z M21.8554688,19.5458984h11.2333984v28.7495117  H21.8554688V19.5458984z M39.2265625,32.7792969h27.2138672V17.5458984H39.2265625V32.7792969z M41.2265625,19.5458984h23.2138672  v11.2333984H41.2265625V19.5458984z M39.4335938,37.7084961h25.1328125v2H39.4335938V37.7084961z M54.8818359,45.0019531H39.4335938  v-2h15.4482422V45.0019531z M39.4335938,48.2954102h7.7246094v2h-7.7246094V48.2954102z M93.1679688,80.6201172L82.3134766,69.90979  v-4.0279541h-2v2.0545044l-9.5742188-9.4470825v20.2714844h-3.4990234v2h3.4990234v7.8818359l6.6318359-5.4970703  l5.6455078,10.8359375l6.2373047-3.1435547l-5.3544922-10.1318359L93.1679688,80.6201172z M86.5332031,89.96875  l-2.6552734,1.3388672L78,80.0263672l-5.2607422,4.3603516V63.2724609l15.5986328,15.3925781l-7.7412109,0.0703125  L86.5332031,89.96875z M59.4726562,78.7607422h3.5v2h-5.5v-3.3183594H11.53125V10.2363281h60.6972656v41.7548828h-0.0283203  v1.9658203h-4.6132812v-2h2.6416016V12.2363281H13.53125v63.2060547h43.9414062v-0.1816406h2V78.7607422z M59.4726562,69.3261719h-2  v-5.9345703h2V69.3261719z M57.4726562,51.9570312h5.5v2h-3.5v3.5h-2V51.9570312z M80.3134766,53.9570312h-3.5v-2h5.5v5.5h-2  V53.9570312z"/><text x="0" y="115" fill="#000000" font-size="5px" font-weight="bold" font-family="'Helvetica Neue', Helvetica, Arial-Unicode, Arial, Sans-serif">Created by Sergey Novosyolov</text><text x="0" y="120" fill="#000000" font-size="5px" font-weight="bold" font-family="'Helvetica Neue', Helvetica, Arial-Unicode, Arial, Sans-serif">from the Noun Project</text></svg>