<svg xmlns="http://www.w3.org/2000/svg" data-name="Layer 1" viewBox="0 0 100 125" x="0px" y="0px"><title>84 all</title><path d="M27,58H73a1,1,0,0,0,1-1V23a1,1,0,0,0-1-1H27a1,1,0,0,0-1,1V57A1,1,0,0,0,27,58ZM51.68,40,72,25V55ZM70,56H30L50,41.24ZM50,38.76,30,24H70ZM48.32,40,28,55V25Z"/><path d="M15.17,7.5a1,1,0,0,0-1,1v83a1,1,0,0,0,1,1H84.83a1,1,0,0,0,1-1V8.5a1,1,0,0,0-1-1Zm68.67,83H16.17V9.5H83.83Z"/><rect x="26" y="68" width="48" height="2"/><rect x="26" y="78" width="48" height="2"/><text x="0" y="115" fill="#000000" font-size="5px" font-weight="bold" font-family="'Helvetica Neue', Helvetica, Arial-Unicode, Arial, Sans-serif">Created by rajakumara</text><text x="0" y="120" fill="#000000" font-size="5px" font-weight="bold" font-family="'Helvetica Neue', Helvetica, Arial-Unicode, Arial, Sans-serif">from the Noun Project</text></svg>